<svg xmlns="http://www.w3.org/2000/svg" viewBox="0 0 512 512">
  <defs>
    <linearGradient id="bg" x1="0" x2="1" y1="0" y2="1">
      <stop offset="0%" stop-color="#d8c9f0"/>
      <stop offset="100%" stop-color="#a58bc4"/>
    </linearGradient>
  </defs>
  <rect width="512" height="512" rx="120" fill="#faf7f4"/>
  <rect x="28" y="28" width="456" height="456" rx="100" fill="url(#bg)"/>
  <g transform="translate(70 70)">
    <path d="M116 42c72 0 130 54 130 122 0 49-30 70-71 70h-18c-11 0-19 9-19 20 0 8 4 15 9 20 8 8 12 19 12 31 0 24-21 42-47 42C50 347 0 285 0 209 0 118 52 42 116 42Z" fill="#f7ecd9"/>
    <circle cx="74" cy="138" r="24" fill="#ef8d67"/>
    <circle cx="136" cy="110" r="22" fill="#f1cc62"/>
    <circle cx="182" cy="162" r="22" fill="#67b38c"/>
    <circle cx="110" cy="206" r="20" fill="#6f92d8"/>
    <circle cx="170" cy="224" r="18" fill="#f07aa5"/>
    <path d="M242 260c18 0 30 12 30 28 0 23-20 38-45 42-44 7-79 31-103 62-8 10-23 12-34 4-11-8-14-23-7-35 31-52 85-101 159-101Z" fill="#5f5276"/>
  </g>
</svg>
